<svg width="500pt" height="800" xmlns="http://www.w3.org/2000/svg" xmlns:xlink="http://www.w3.org/1999/xlink"><defs><linearGradient id="a"><stop offset="0" stop-color="#3f2600" stop-opacity=".6"/><stop offset="1" stop-color="#3f2600" stop-opacity="0"/></linearGradient><linearGradient id="d"><stop offset="0" stop-color="#fff" stop-opacity=".65"/><stop offset="1" stop-color="#fff" stop-opacity="0"/></linearGradient><linearGradient id="e"><stop offset="0" stop-color="#ffa63f"/><stop offset="1" stop-color="#ff0"/></linearGradient><linearGradient id="b"><stop offset="0" stop-color="#ffeed7"/><stop offset="1" stop-color="#bdbfc2"/></linearGradient><linearGradient id="c"><stop offset="0" stop-color="#fff" stop-opacity=".8"/><stop offset="1" stop-color="#fff" stop-opacity="0"/></linearGradient><radialGradient xlink:href="#a" id="f" gradientTransform="scale(1.04523 .95673)" cx="446.778" cy="1219.412" fx="446.778" fy="1219.412" r="195.072" gradientUnits="userSpaceOnUse"/><linearGradient xlink:href="#b" id="g" gradientUnits="userSpaceOnUse" x1="400.578" y1="369.53" x2="400.844" y2="304.079" gradientTransform="scale(.57526 1.73834)"/><linearGradient xlink:href="#c" id="h" gradientUnits="userSpaceOnUse" x1="303.018" y1="237.932" x2="297.086" y2="330.096" gradientTransform="scale(1.11607 .896)"/><linearGradient xlink:href="#b" id="i" gradientUnits="userSpaceOnUse" gradientTransform="scale(.8165 1.22474)" x1="378.938" y1="278.602" x2="380.273" y2="243.916"/><linearGradient xlink:href="#b" id="j" gradientUnits="userSpaceOnUse" x1="381.387" y1="277.495" x2="380.552" y2="245.683" gradientTransform="scale(.8165 1.22474)"/><linearGradient xlink:href="#d" id="k" gradientUnits="userSpaceOnUse" gradientTransform="scale(.8165 1.22474)" x1="379.096" y1="240.927" x2="376.796" y2="281.016"/><linearGradient xlink:href="#d" id="l" gradientUnits="userSpaceOnUse" x1="389.635" y1="242.282" x2="387.069" y2="281.325" gradientTransform="scale(.8165 1.22474)"/><linearGradient xlink:href="#b" id="m" gradientUnits="userSpaceOnUse" spreadMethod="reflect" x1="437.579" y1="528.872" x2="437.579" y2="394.104" gradientTransform="scale(.81285 1.23023)"/><linearGradient xlink:href="#b" id="n" gradientUnits="userSpaceOnUse" x1="375.173" y1="419.785" x2="377.485" y2="324.038" gradientTransform="scale(.64978 1.53897)"/><linearGradient xlink:href="#c" id="o" gradientUnits="userSpaceOnUse" x1="320.751" y1="498.178" x2="321.322" y2="614.504" gradientTransform="scale(1.0748 .9304)"/><linearGradient xlink:href="#d" id="p" gradientUnits="userSpaceOnUse" x1="322.483" y1="435.268" x2="323.251" y2="488.483" gradientTransform="scale(1.077 .9285)"/><linearGradient xlink:href="#d" id="q" gradientUnits="userSpaceOnUse" x1="411.221" y1="242.944" x2="411.221" y2="331.449" gradientTransform="scale(.5717 1.74915)"/><linearGradient xlink:href="#d" id="r" gradientUnits="userSpaceOnUse" x1="867.345" y1="234.739" x2="867.335" y2="314.839" gradientTransform="scale(.57267 1.74621)"/><linearGradient xlink:href="#e" id="s" gradientUnits="userSpaceOnUse" x1="236.254" y1="657.111" x2="212.51" y2="737.412" gradientTransform="scale(1.01151 .98862)"/><linearGradient xlink:href="#b" id="t" gradientUnits="userSpaceOnUse" x1="381.566" y1="655.731" x2="279.643" y2="386.666" gradientTransform="scale(1.0655 .93853)"/><linearGradient xlink:href="#e" id="u" gradientUnits="userSpaceOnUse" x1="218.117" y1="630.305" x2="203.127" y2="737.854" gradientTransform="scale(1.00985 .99025)"/><linearGradient xlink:href="#d" id="v" gradientUnits="userSpaceOnUse" gradientTransform="scale(1.00772 .99233)" x1="117.89" y1="587.236" x2="182.245" y2="704.731"/><linearGradient xlink:href="#d" id="w" gradientUnits="userSpaceOnUse" x1="223.101" y1="570.418" x2="230.535" y2="710.977" gradientTransform="scale(.9995 1.0005)"/><linearGradient xlink:href="#d" id="x" gradientUnits="userSpaceOnUse" x1="316.94" y1="474.018" x2="371.609" y2="582.635" gradientTransform="scale(1.0655 .93853)"/><linearGradient xlink:href="#e" id="y" gradientUnits="userSpaceOnUse" x1="284.687" y1="410.463" x2="285.459" y2="485.699" gradientTransform="scale(1.21868 .82056)"/><linearGradient xlink:href="#d" id="z" gradientUnits="userSpaceOnUse" x1="288.824" y1="398.854" x2="288.376" y2="482.559" gradientTransform="scale(1.22194 .81837)"/></defs><path transform="matrix(1.4177 0 0 .41474 -349.547 157.941)" d="M670.882 1166.642a203.896 186.63 0 1 1-407.791 0 203.896 186.63 0 1 1 407.791 0z" fill="url(#f)"/><path d="M154.235 558.542c-27.985-40.278-33.442-171.23 31.86-251.787 32.357-38.648 40.612-65.581 43.163-101.741 1.736-41.224-29.156-164.303 87.354-173.68 118.007-9.415 111.67 107.075 110.99 168.718-.563 52.05 38.218 81.552 64.746 122.12 49.099 74.537 44.946 202.874-9.249 272.34-68.646 86.96-127.441 49.247-166.487 52.412-73.117 4.002-75.534 42.988-162.377-88.382z"/><path transform="matrix(-1.67739 -.02245 -.02112 1.4709 862.828 -357.27)" d="M246.571 470.864c-12.239 12.496-44.396 69.092 4.869 105.36 17.369 12.633-16.377 59.495-32.005 36.308-27.57-41.618-8.831-106.941 8.315-130.188 11.652-16.487 29.23-22.676 18.821-11.48z" fill="url(#g)"/><path transform="matrix(-1.67755 0 0 1.52374 863.868 -382.335)" d="M256.513 459.837c-19.915 17.717-56.176 80.091-3.288 120.606 17.37 12.632-15.393 52.463-33.79 32.089-63.963-70.82 1.669-152.254 24.262-180.25 20.192-24.347 38.078 5.752 12.816 27.555z" stroke="#000" stroke-width=".977"/><path transform="matrix(1.26626 -.07137 -.04598 1.19574 -108.61 -190.014)" d="M399.569 258.158a58.373 46.863 0 1 1-116.747 0 58.373 46.863 0 1 1 116.747 0z" fill="url(#h)"/><path transform="matrix(1.30445 -.07553 .07713 1.34257 -165.995 -241.87)" d="M328.863 320.642a18.087 27.131 0 1 1-36.175 0 18.087 27.131 0 1 1 36.175 0z" fill="url(#i)"/><path transform="matrix(-1.81082 .04951 .03173 1.55333 896.708 -349.03)" d="M328.863 320.642a18.087 27.131 0 1 1-36.175 0 18.087 27.131 0 1 1 36.175 0z" fill="url(#j)"/><path d="M326.357 170.577a14.885 23.142 2.003 1 1 29.779.063 14.885 23.142 2.003 1 1-29.78-.063zm-52.126.134a10.826 19.244-4.936 1 1-21.502 2.616 10.826 19.244-4.936 1 1 21.502-2.616z"/><path transform="matrix(-.48032 -.03645 -.0468 .4756 502.744 22.76)" d="M328.863 320.642a18.087 27.131 0 1 1-36.175 0 18.087 27.131 0 1 1 36.175 0z" fill="url(#k)"/><path transform="matrix(.35691 -.04082 .04132 .39854 138.582 50.738)" d="M328.863 320.642a18.087 27.131 0 1 1-36.175 0 18.087 27.131 0 1 1 36.175 0z" fill="url(#l)"/><path transform="matrix(1.25 0 0 1.25 -125.298 -232.483)" d="M258.702 495.425c12.836-29.103 40.114-80.226 40.695-119.758 0-31.442 94.179-38.951 101.737-7.558 7.558 31.393 26.741 78.483 38.95 101.156 12.208 22.672 47.809 94.695 9.884 157.546-34.157 55.644-137.725 99.666-193.01-7.557-18.603-37.207-15.285-83.315 1.744-123.829z" fill="url(#m)"/><path transform="matrix(1.38936 -.11107 .10221 1.30214 -202.34 -230.19)" d="M242.905 473.815c-11.263 18.967-35.5 69.309 12.137 102.047 51.311 34.82 46.473 97.062-15.607 61.955-56.777-31.789-22.845-137.778-4.51-162.266 12.107-17.214 29.897-38.031 7.98-1.736z" fill="url(#n)"/><path d="M195.343 330.392c-21.831 35.635-74.221 119.767-4.11 163.404 94.461 57.944 67.716 115.889-18.499 63.718-121.386-72.83-14.781-219.52 33.914-275.423 55.555-62.75 10.692 11.359-11.305 48.301z" stroke="#000" stroke-width="1.563"/><path d="M421.481 504.727c0 32.412-29.272 74.516-79.528 74.138-51.828.455-73.949-41.726-73.949-74.138 0-32.412 34.379-58.717 76.739-58.717 42.359 0 76.738 26.305 76.738 58.717z" transform="matrix(1.30209 0 0 1.22525 -140.71 -217.81)" font-size="12" fill="url(#o)"/><path d="M398.227 412.292c-.612 38.572-23.18 47.671-51.74 47.671-28.561 0-49.292-5.694-51.741-47.671 0-26.314 23.18-41.542 51.741-41.542 28.56 0 51.74 15.228 51.74 41.542z" transform="matrix(1.1868 0 0 1.06708 -100.13 -164.33)" font-size="12" fill="url(#p)"/><path transform="matrix(1.25 0 0 1.25 -125.298 -231.758)" d="M234.285 456.475c17.716-26.996 55.015-68.364 6.977 5.813-38.951 61.043-14.403 100.273-1.744 111.039 36.527 32.562 34.966 54.349 6.395 37.206-61.625-36.626-48.835-98.248-11.628-154.058z" fill="url(#q)"/><path transform="matrix(1.25 0 0 1.25 -125.298 -231.758)" d="M490.662 467.52c-15.319-31.701-64.134-111.902 2.326-18.603 60.461 84.297 18.022 143.013 10.464 148.827-7.557 5.813-33.137 17.44-25.579-2.907 7.557-20.347 45.234-58.973 12.789-127.317z" fill="url(#r)"/><path transform="matrix(1.25 0 0 1.25 -125.298 -231.758)" d="M220.915 716.921c-40.442-21.416-99.252 4.124-77.902-54.066 4.276-13.238-6.375-33.008.581-45.926 8.139-15.698 25.58-12.209 36.045-22.674 10.318-10.891 16.859-29.649 36.044-26.742 19.184 2.907 31.945 26.461 45.344 55.229 9.883 20.638 44.941 49.664 42.65 72.758-2.696 35.5-43.027 42.19-82.762 21.421z" fill="url(#s)" stroke="#e68c3f" stroke-width="6.25"/><path d="M415.072 495.764c-3.007 24.906-35.813 76.627-69.518 81.534-34.26 5.336-66.432-34.06-74.147-71.114-9.889-41.206 22.587-57.6 71.938-56.627 53.301 1.654 74.121 13.891 71.727 46.207z" transform="matrix(.5982 .26858 -.23962 .61721 389.816 76.211)" font-size="12" fill="url(#t)"/><path transform="matrix(-1.1685 .42314 .47528 1.16478 417.59 -278.074)" d="M220.274 718.402c-41.327-23.59-99.894 5.605-77.261-55.547 4.736-13.068-6.596-33.552.36-46.47 8.139-15.698 25.801-11.665 36.266-22.13 10.318-10.891 18.827-27.868 38.012-24.961 19.184 2.907 29.977 24.68 43.376 53.448 9.883 20.638 43.415 48.971 41.124 72.065-2.696 35.5-42.724 45.471-81.877 23.595z" fill="url(#u)" stroke="#e68c3f" stroke-width="6.251"/><path transform="matrix(-.9451 .34375 .42408 .95606 403.576 -128.595)" d="M216.482 675.68c-86.531-57.503-47.308-70.96-36.843-81.425 10.318-10.891 18.827-27.868 38.012-24.961 19.184 2.907 29.977 24.68 43.376 53.448 9.883 20.638 43.06 48.918 41.124 72.065-2.616 27.11-48.19 5.487-85.669-19.127z" fill="url(#v)"/><path transform="matrix(1.00431 -.05229 -.0174 1.04575 -66.561 -92.718)" d="M216.506 677.071c-86.531-57.503-46.797-73.57-33.946-81.28 15.399-9.942 15.158-30.831 34.343-27.924 19.184 2.907 30.725 26.107 44.124 54.875 9.883 20.638 43.06 48.918 41.124 72.065-2.616 27.11-48.166 6.878-85.645-17.736z" fill="url(#w)"/><path d="M514.164 492.894c-6.694 11.673-34.29 30.196-52.681 25.368-18.766-4.735-27.217-31.149-23.542-51.139 3.411-22.512 23.54-23.63 48.785-12.526 27.14 12.291 35.346 22.826 27.438 38.297z" font-size="12"/><path d="M415.072 495.764c-3.007 24.906-35.813 76.627-69.518 81.534-34.26 5.336-66.432-34.06-74.147-71.114-9.889-41.206 22.587-57.6 71.938-56.627 53.301 1.654 74.121 13.891 71.727 46.207z" transform="matrix(.35123 .14946 -.12886 .34347 413.77 254.038)" font-size="12" fill="url(#x)"/><path transform="matrix(1.25 0 0 1.25 -125.298 -231.758)" d="M309.954 338.729c7.147-6.77 24.811-27.066 57.961-5.755 6.162 4.01 11.162 4.377 23.021 9.455 23.726 9.749 12.382 33.259-12.744 41.108-10.758 3.489-20.536 16.556-40.129 15.439-16.734-.977-21.119-11.874-31.398-17.906-18.269-10.311-20.965-24.254-11.1-31.653 9.866-7.399 13.725-10.059 14.389-10.688z" fill="url(#y)" stroke="#e68c3f" stroke-width="3.75"/><path d="M363.765 215.299c-12.353.726-39.24 27.613-67.582 27.613-28.341 0-45.055-26.16-49.415-26.16" fill="none" stroke="#e68c3f" stroke-width="3.125"/><path transform="matrix(.62789 0 0 .59567 81.614 -12.435)" d="M309.954 338.729c7.147-6.77 29.691-25.348 59.588-6.328 6.299 3.766 12.804 7.865 22.478 13.464 19.162 11.748 9.671 28.678-13.286 39.39-10.418 4.495-27.593 14.415-40.671 13.721-14.533-1.408-23.935-11.399-33.567-17.906-17.67-12.303-16.597-22.237-8.389-30.508 6.205-5.679 13.183-11.204 13.847-11.833z" fill="url(#z)"/></svg>